<?xml version="1.0" encoding="utf-8"?>
<!-- Generator: Adobe Illustrator 23.0.5, SVG Export Plug-In . SVG Version: 6.00 Build 0)  -->
<svg version="1.1" id="Capa_1" xmlns="http://www.w3.org/2000/svg" xmlns:xlink="http://www.w3.org/1999/xlink" x="0px" y="0px"
	 viewBox="0 0 500 500" style="enable-background:new 0 0 500 500;" xml:space="preserve">
<style type="text/css">
	.st0{display:none;}
	.st1{display:inline;}
	.st2{fill:#E2E2E2;}
	.st3{fill:#54CB61;}
	.st4{fill:#FEFEFD;}
</style>
<g id="XMLID_1_" class="st0">
	<g class="st1">
		<circle class="st2" cx="250" cy="250" r="250"/>
	</g>
</g>
<g class="st0">
	<path class="st1" d="M416.4,161.3c-2.8,8-7.9,14.6-13.3,20.9c-3.2,3.6-6.5,7-9.9,10.5c-4.3,4.4-8.5,8.9-13,13.2
		c-3.8,3.6-7.8,7.2-12,10.4c-5.5,4.3-11.4,7.9-18.2,10c-9.3,2.9-18.5,2.8-27.7-0.4c-3.2-1.1-5.4-0.7-7.7,1.9
		c-5.4,5.9-11,11.5-16.5,17.2c-3.8,3.9-7.6,7.8-11.4,11.7c-3.9,4-7.9,8-11.8,12.1c-3.8,3.9-7.6,7.8-11.5,11.7c-4,4.1-8,8.2-12,12.3
		c-3.8,3.9-7.6,7.8-11.4,11.7c-3.9,4-7.8,8-11.7,12s-7.8,8-11.7,12s-7.8,8-11.7,12c-4,4.1-7.9,8.1-11.9,12.2c-3.9,4-7.9,8-11.8,12.1
		c-3.8,3.9-7.6,7.7-11.3,11.6c-4,4.1-7.9,8.1-11.9,12.2c-0.4,0.4-0.9,0.6-1.3,1c-3.7,4.5-8.1,4-12.8,1.9
		c-8.9-3.9-14.9-10.6-18.3-19.6c-1.3-3.5-0.4-6.3,2.2-8.7c3.9-3.7,7.8-7.3,11.8-10.9c5.6-5.2,11.1-10.4,16.7-15.5
		c3.8-3.6,7.7-7.1,11.6-10.7c3.9-3.6,7.8-7.2,11.7-10.8c3.9-3.6,7.8-7.2,11.7-10.8c3.9-3.6,7.9-7.3,11.8-10.9
		c3.9-3.6,7.8-7.2,11.7-10.8c3.9-3.5,7.7-7.1,11.6-10.7c3.9-3.6,7.9-7.3,11.8-10.9c3.8-3.5,7.6-7,11.4-10.5c4-3.7,7.9-7.3,11.9-11
		c3.9-3.6,7.8-7.2,11.7-10.8c3.9-3.6,7.9-7.3,11.8-10.9c3.3-3,6.6-6,9.8-9.1c2.5-2.4,2.6-3,1.3-6.2c-5.2-12-5.5-24.1,0.4-35.9
		c3.2-6.4,7.5-12.1,12.8-17.1c2-1.9,3.6-4.1,5.5-6c5.5-5.4,11.1-10.9,16.8-16.2c3.6-3.4,7.5-6.5,11.3-9.7c2.4-2,5-3.8,7.5-5.7
		c3.3-2.5,7-3.9,10.9-5c0.8,0,1.5,0,2.3,0c2.8,1.1,5.6,2,8.2,3.3c2.1,1,2.3,2,0.6,3.7c-2.1,2.3-4.4,4.5-6.6,6.7
		c-3.6,3.7-7.3,7.4-11,11c-4.1,4.1-8.2,8.2-12.2,12.3c-3.1,3.2-6.1,6.4-9.2,9.6c-2,2.1-4.1,4.1-6,6.4c-1.9,2.3-1.6,4.6,0.4,6.7
		c2.4,2.4,4.8,2.8,7.5,0.8c3.4-2.5,6.7-5.2,10-7.9c3.7-3,7.3-6,11-9.1c4-3.3,8.1-6.7,12.1-10c5.7-4.7,11.3-9.5,17-14.3
		c0.3-0.3,0.7-0.6,1-0.8c1-0.7,1.9-0.7,2.9,0.1c1.7,1.5,3.4,3,5,4.5c2.1,2.1,2.2,3.4,0.2,5.7c-1.5,1.8-3.1,3.4-4.7,5.1
		c-3.9,4.4-7.8,8.8-11.7,13.3c-6,6.8-11.9,13.7-17.8,20.5c-1.8,2-3.7,4-5.4,6c-1.2,1.4-2.3,2.8-3.2,4.4c-1.1,1.9-0.8,3.8,0.7,5.5
		c2.3,2.7,5.4,3,8.4,0.6c2.6-2.1,5.1-4.5,7.7-6.8c3.9-3.5,7.7-7.1,11.5-10.7c5.7-5.4,11.4-10.8,17.1-16.1c3.2-3,6.5-6,9.8-8.9
		c2.7-2.3,4-2.1,5.7,1.1c1.3,2.5,2.5,5.1,3.7,7.6C416.4,158.8,416.4,160,416.4,161.3z"/>
	<path class="st1" d="M114.5,118.4c5.9,0.1,11.7,1.2,17.5,2.6c8.5,2,16.8,4.8,24.4,9.1c3.4,1.9,6.6,3.9,9.9,6
		c5,3.2,9.2,7.4,13.4,11.5c4.6,4.5,8.2,9.6,11.6,15c8.2,13,8.5,26.6,2.6,40.5c-1.3,3-1.1,3.9,1.3,6.1c6.5,6,12.9,12,19.4,18
		c3.8,3.6,7.7,7.1,11.6,10.6c2.5,2.3,5,4.5,7.4,6.8c1.7,1.6,1.7,2.3,0,4c-5.1,4.8-10.2,9.6-15.4,14.4c-1,1-2.2,1.8-3.4,2.6
		c-1.1,0.8-2.2,0.5-3.2-0.3c-0.4-0.3-0.9-0.7-1.2-1.1c-5.2-5.3-10.4-10.7-15.6-16c-4.5-4.6-9-9.2-13.6-13.8c-2-2-4.1-4-6.1-6.1
		c-1.5-1.6-3.2-1.9-5.2-1c-8.2,3.6-16.8,5.2-25.7,3.9c-7.6-1.1-14.5-3.9-20.7-8.3c-4.2-3-8.2-6.3-12.3-9.6
		c-4.6-3.6-7.9-8.3-11.5-12.7c-5.3-6.7-8.7-14.4-12-22.1c-3.2-7.5-4.9-15.3-5.9-23.3c-0.9-7.1-0.2-14,3.8-20.1
		C92.3,124.7,101.5,118.1,114.5,118.4z"/>
	<path class="st1" d="M340.6,393.3c-1.9-0.8-3.9-1.4-5.6-2.5c-2-1.3-3.9-2.8-5.5-4.5c-6.3-6.4-12.4-12.9-18.6-19.3
		c-4.2-4.4-8.5-8.9-12.7-13.3c-3.8-4-7.7-7.9-11.5-11.8c-3.9-4-7.8-8-11.7-12c-3.9-4-7.7-7.9-11.6-11.8c-2.5-2.6-5.1-5-7.5-7.6
		c-2.3-2.5-2.3-3,0-5.5c5.7-6,11.5-11.9,17.2-17.9c0.5-0.5,1.1-0.8,1.7-1.2c1.3-0.9,2.5-0.7,3.7,0.1c0.6,0.4,1.1,0.9,1.7,1.4
		c5.3,4.9,10.6,9.9,15.9,14.8c4,3.7,8,7.4,12,11.1c3.6,3.4,7.3,6.7,10.9,10.1c4.2,3.9,8.4,7.8,12.6,11.7c3.7,3.4,7.4,6.8,11.1,10.2
		c4,3.7,8,7.4,12.1,11.1c2,1.9,4.2,3.6,6.1,5.5c3.5,3.4,4.2,6.6,2.4,11.1c-1.6,4-3.7,7.8-6.8,10.7c-3,2.8-6.2,5.2-9.6,7.5
		C345.1,392.3,342.8,392.6,340.6,393.3z"/>
</g>
<g>
	<path d="M63.5,438.1c8.6-25.4,17-50.1,25.4-74.9c3.9-11.5,7.8-23.1,11.7-34.6c0.7-1.9,0.1-3.4-0.8-5.1
		c-9.4-18.3-15.9-37.7-18.5-58.1c-2-15.7-2-31.6,0.3-47.5c2-13.9,5.2-27.4,10.3-40.3c7.4-18.6,17.4-35.7,30.6-51
		c11.7-13.5,24.8-25.3,39.8-34.7c21-13.1,43.5-22.1,68.1-25.8c10.1-1.5,20.3-2.6,30.4-2.4c14.5,0.2,29,2,43.1,5.8
		c28.1,7.5,52.9,20.6,74.6,40c29.8,26.5,48.4,59.4,56.3,98.2c4.2,20.7,4.4,41.6,0.8,62.7c-4.2,24.6-12.8,47.3-26.3,68
		c-9.1,14-20.2,26.5-32.9,37.5c-18.8,16.3-40,28.2-63.6,35.6c-13.4,4.2-27.3,6.4-41.4,7.6c-25.2,2.2-49.4-1.8-73-9.8
		c-5.7-1.9-11.1-4.4-16.6-6.9c-1.9-0.9-3.6-0.8-5.6-0.2c-24.2,7.8-48.5,15.6-72.7,23.3C90.6,429.8,77.4,433.8,63.5,438.1z"/>
	<path class="st3" d="M86.2,415.9c9.3-27.6,18.1-54.4,27.5-81.1c2.4-6.8,2.2-12-1.3-18.5c-11.2-20.7-17-43.1-17.9-66.7
		c-1.9-47.9,14.2-89.1,47.8-123.1c25.2-25.5,56-41,91.5-46.2c47.5-7,90.6,4.1,128.2,33.9c33.1,26.2,53.3,60.5,59.9,102.3
		c6.6,41.7-1.9,80.3-25,115.4c-19.8,30-46.7,51.4-80.6,63.5c-44.7,16-88.7,13.7-131.5-7.4c-2.8-1.4-5.2-1.6-8.3-0.6
		c-28.8,9.3-57.6,18.4-86.3,27.6C89.1,415.1,88,415.4,86.2,415.9z"/>
	<path class="st4" d="M201.6,153.7c9.9-2.4,14.6,4,18,12.7c3.8,9.7,7.6,19.4,12.1,28.8c3.4,7.2,2,13.3-2.3,19.1
		c-2.6,3.5-5.5,6.9-8.5,10.1c-2.2,2.4-2.3,4.5-0.5,7.3c14.4,23.3,34.1,40.3,59.5,50.6c3.1,1.3,5.1,0.7,7.2-1.8
		c4.3-5.5,8.8-10.8,13.2-16.3c3.7-4.6,6.8-5.9,12.4-3.8c14,5.3,27.2,12.3,40.5,19.1c3.6,1.9,4.2,5.5,4.2,9.2
		c0,22.6-12.3,35.3-36,42.2c-11.2,3.3-21.9,1.2-32.5-2.3c-18.6-6.3-37.4-12.4-53.5-24.3c-27.7-20.5-49.8-45.9-64.7-76.9
		c-10.9-22.6-9.5-44.7,7.8-64.5C184.5,156.1,191.5,152.3,201.6,153.7z"/>
</g>
</svg>
